<?xml version="1.0" encoding="UTF-8" standalone="no"?>
<svg width="40px" height="40px" viewBox="0 0 40 40" version="1.1" xmlns="http://www.w3.org/2000/svg" xmlns:xlink="http://www.w3.org/1999/xlink">
    <!-- Generator: Sketch 43.1 (39012) - http://www.bohemiancoding.com/sketch -->
    <title>Group 4</title>
    <desc>Created with Sketch.</desc>
    <defs></defs>
    <g id="plugin_new" stroke="none" stroke-width="1" fill="none" fill-rule="evenodd">
        <g id="plugin_manual" transform="translate(-1463.000000, -337.000000)" fill-rule="nonzero" fill="#B6C1CD">
            <g id="Group-2" transform="translate(1463.000000, 337.000000)">
                <g id="email-(1)-copy">
                    <g id="Group">
                        <g id="Group-4">
                            <path d="M35.8620312,31.0344531 L31.7240625,31.0344531 C31.3428906,31.0344531 31.034375,31.3432812 31.034375,31.7241406 C31.034375,32.105 31.3428125,32.4138281 31.7240625,32.4138281 L33.876875,32.4138281 C30.3419531,36.3715625 25.3485937,38.6207031 20,38.6207031 C9.73257812,38.6207031 1.37929687,30.2674219 1.37929687,20 C1.37929687,16.9905469 2.1134375,14.0011719 3.50351562,11.3550781 C3.68070312,11.0180469 3.55070312,10.6010937 3.21328125,10.4239844 C2.87585937,10.2471875 2.4596875,10.3767969 2.28179687,10.7139062 C0.789296875,13.5567187 0,16.7679687 0,20 C0,31.028125 8.97226562,40 20,40 C25.8825781,40 31.3624219,37.4642187 35.1724219,33.0217969 L35.1724219,35.8620312 C35.1724219,36.2428906 35.4808594,36.5517187 35.8621094,36.5517187 C36.2433594,36.5517187 36.5517969,36.2428906 36.5517969,35.8620312 L36.5517969,31.7240625 C36.5517187,31.3432812 36.2432812,31.0344531 35.8620312,31.0344531 Z" id="Shape"></path>
                            <path d="M20,0 C14.1026562,0 8.63546875,2.52617188 4.82757812,6.96929688 L4.82757812,4.13796875 C4.82757812,3.75710938 4.51914062,3.44828125 4.13789062,3.44828125 C3.75664062,3.44828125 3.44820312,3.75710938 3.44820312,4.13796875 L3.44820312,8.2759375 C3.44820312,8.65679688 3.75664062,8.965625 4.13789062,8.965625 L8.27585937,8.965625 C8.65703125,8.965625 8.96554687,8.65679688 8.96554687,8.2759375 C8.96554687,7.89507813 8.65710937,7.58625 8.27585937,7.58625 L6.1278125,7.58625 C9.66085937,3.62757813 14.6375781,1.37929688 20,1.37929688 C30.2674219,1.37929688 38.6207031,9.73257812 38.6207031,20 C38.6207031,23.0094531 37.8865625,25.9988281 36.4964844,28.6449219 C36.3192969,28.9819531 36.4492969,29.3989063 36.7867187,29.5760156 C36.8891406,29.6299219 36.9989062,29.6551563 37.1066406,29.6551563 C37.3544531,29.6551563 37.5942187,29.5210937 37.7182031,29.2860937 C39.2107031,26.4432813 40,23.2320313 40,20 C40,8.971875 31.0277344,0 20,0 Z" id="Shape"></path>
                        </g>
                    </g>
                </g>
            </g>
        </g>
    </g>
</svg>