<?xml version="1.0" standalone="no"?><!DOCTYPE svg PUBLIC "-//W3C//DTD SVG 1.1//EN" "http://www.w3.org/Graphics/SVG/1.1/DTD/svg11.dtd"><svg t="1669363670078" class="icon" viewBox="0 0 1024 1024" version="1.1" xmlns="http://www.w3.org/2000/svg" p-id="23568" xmlns:xlink="http://www.w3.org/1999/xlink" width="200" height="200"><path d="M113.777778 0h796.444444a113.777778 113.777778 0 0 1 113.777778 113.777778v796.444444a113.777778 113.777778 0 0 1-113.777778 113.777778H113.777778a113.777778 113.777778 0 0 1-113.777778-113.777778V113.777778a113.777778 113.777778 0 0 1 113.777778-113.777778z m398.222222 824.888889c172.8 0 312.888889-140.088889 312.888889-312.888889S684.8 199.111111 512 199.111111 199.111111 339.2 199.111111 512s140.088889 312.888889 312.888889 312.888889z m-13.653333-252.416h-0.398223v-113.777778a85.333333 85.333333 0 0 1 170.666667 0v104.362667a49.777778 49.777778 0 1 1-43.690667 0.483555v-104.846222c0-15.701333-7.281778-43.406222-41.642666-43.406222-32.568889 0-42.040889 23.836444-43.235556 39.822222H540.444444v113.777778a85.333333 85.333333 0 0 1-170.666666 0v-104.334222a49.777778 49.777778 0 1 1 43.690666-0.512V568.888889c0 15.701333 7.281778 43.406222 41.642667 43.406222 32.568889 0 42.040889-23.836444 43.235556-39.822222z" fill="#4E73D1" p-id="23569"></path></svg>