<?xml version="1.0" encoding="UTF-8"?>
<svg width="300px" height="211px" viewBox="0 0 300 211" version="1.1" xmlns="http://www.w3.org/2000/svg" xmlns:xlink="http://www.w3.org/1999/xlink">
    <title>插图</title>
    <defs>
        <linearGradient x1="50.4102564%" y1="-0.464285714%" x2="50.4102564%" y2="49.5357143%" id="linearGradient-1">
            <stop stop-color="#A8A8A8" stop-opacity="0.15" offset="0%"></stop>
            <stop stop-color="#A8A8A8" stop-opacity="0" offset="100%"></stop>
        </linearGradient>
        <linearGradient x1="0%" y1="49.9958204%" x2="100%" y2="49.9958204%" id="linearGradient-2">
            <stop stop-color="#EDEDED" offset="0%"></stop>
            <stop stop-color="#DCDCDC" offset="3%"></stop>
            <stop stop-color="#D7D7D7" offset="100%"></stop>
        </linearGradient>
        <radialGradient cx="50.3276607%" cy="-90.8935484%" fx="50.3276607%" fy="-90.8935484%" r="577.947214%" gradientTransform="translate(0.503277,-0.908935),scale(0.086614,1.000000),translate(-0.503277,0.908935)" id="radialGradient-3">
            <stop stop-color="#808083" offset="0%"></stop>
            <stop stop-color="#9A9A9C" offset="7%"></stop>
            <stop stop-color="#B9B9BA" offset="17%"></stop>
            <stop stop-color="#D2D2D4" offset="28%"></stop>
            <stop stop-color="#E6E6E7" offset="40%"></stop>
            <stop stop-color="#F4F4F5" offset="53%"></stop>
            <stop stop-color="#FDFDFD" offset="70%"></stop>
            <stop stop-color="#FFFFFF" offset="99%"></stop>
        </radialGradient>
        <linearGradient x1="76.8888405%" y1="18.5564276%" x2="33.57433%" y2="100%" id="linearGradient-4">
            <stop stop-color="#D7D7D7" offset="0%"></stop>
            <stop stop-color="#FFFFFF" offset="100%"></stop>
        </linearGradient>
        <linearGradient x1="76.5374359%" y1="19.3167584%" x2="31.5996602%" y2="100%" id="linearGradient-5">
            <stop stop-color="#D7D7D7" offset="0%"></stop>
            <stop stop-color="#FFFFFF" offset="100%"></stop>
        </linearGradient>
        <linearGradient x1="89.4904511%" y1="-22.6115811%" x2="31.7583383%" y2="116.71431%" id="linearGradient-6">
            <stop stop-color="#D7D7D7" offset="0%"></stop>
            <stop stop-color="#FFFFFF" offset="100%"></stop>
        </linearGradient>
        <linearGradient x1="0%" y1="49.9958204%" x2="100%" y2="49.9958204%" id="linearGradient-7">
            <stop stop-color="#F2F2F2" offset="0%"></stop>
            <stop stop-color="#F3F3F3" offset="100%"></stop>
        </linearGradient>
        <linearGradient x1="0%" y1="50%" x2="100%" y2="50%" id="linearGradient-8">
            <stop stop-color="#D7D7D7" offset="0%"></stop>
            <stop stop-color="#EDEDED" offset="100%"></stop>
        </linearGradient>
        <linearGradient x1="0%" y1="50%" x2="100%" y2="50%" id="linearGradient-9">
            <stop stop-color="#EDEDED" offset="0%"></stop>
            <stop stop-color="#DCDCDC" offset="3%"></stop>
            <stop stop-color="#D7D7D7" offset="100%"></stop>
        </linearGradient>
        <linearGradient x1="100%" y1="50.0390226%" x2="-0.0499866651%" y2="50.0390226%" id="linearGradient-10">
            <stop stop-color="#1F1F49" offset="0%"></stop>
            <stop stop-color="#424776" offset="100%"></stop>
        </linearGradient>
        <linearGradient x1="50%" y1="0%" x2="50%" y2="100%" id="linearGradient-11">
            <stop stop-color="#5994F7" offset="0%"></stop>
            <stop stop-color="#5868F5" offset="100%"></stop>
        </linearGradient>
        <linearGradient x1="50.5097132%" y1="0.0346079245%" x2="50.5097132%" y2="99.4358974%" id="linearGradient-12">
            <stop stop-color="#494B80" offset="0%"></stop>
            <stop stop-color="#272756" offset="100%"></stop>
        </linearGradient>
        <linearGradient x1="100%" y1="49.9953179%" x2="0.0319590924%" y2="49.9953179%" id="linearGradient-13">
            <stop stop-color="#FAA35E" offset="0%"></stop>
            <stop stop-color="#F66357" offset="100%"></stop>
        </linearGradient>
        <linearGradient x1="0%" y1="50.0088106%" x2="100%" y2="50.0088106%" id="linearGradient-14">
            <stop stop-color="#D7D7D7" offset="0%"></stop>
            <stop stop-color="#EDEDED" offset="100%"></stop>
        </linearGradient>
    </defs>
    <g id="插图" stroke="none" stroke-width="1" fill="none" fill-rule="evenodd">
        <g id="编组">
            <ellipse id="背景" fill="url(#linearGradient-1)" fill-rule="nonzero" cx="147.727273" cy="135.909091" rx="147.727273" ry="74.2424242"></ellipse>
            <rect id="矩形" fill="url(#linearGradient-2)" fill-rule="nonzero" x="78.4924242" y="12.5606061" width="143.863636" height="90.6287879" rx="8"></rect>
            <ellipse id="椭圆形" fill="url(#radialGradient-3)" fill-rule="nonzero" opacity="0.36" style="mix-blend-mode: multiply;" cx="150.757576" cy="104.537879" rx="149.128788" ry="12.9166667"></ellipse>
            <path d="M37.6069216,91.9167813 C36.541485,94.0450986 34.2984517,93.7142455 34.1692749,95.1604121 C34.040098,96.6065787 36.8361351,100.864398 32.0992592,103.192984 C31.7614382,103.346471 30.2266893,103.065544 27.4950123,102.350202 C27.3339151,102.279549 27.1757155,102.207714 27.0204136,102.134696 L27.0777522,101.989766 C28.9784353,99.6560738 30.6178515,97.0965384 31.9960009,94.3111602 C32.0275015,94.2800922 32.055095,94.2348254 32.0552199,94.1907369 C32.5627668,93.1572194 33.0347131,92.0919065 33.4707994,90.9955957 L33.4333231,90.9793803 C34.2044057,91.3027039 35.5928905,91.884911 37.8600998,90.8201914 C37.8611883,91.1771149 37.7855471,91.5449046 37.6069216,91.9167813 Z M28.0018133,89.153391 C28.6935522,91.804684 30.9832991,93.6310658 31.7814989,94.2224238 C30.4728787,96.9620353 28.86572,99.6454189 26.9401588,101.863466 C26.9448543,101.886923 26.9277634,101.969123 26.901013,102.076759 C24.2477763,100.807821 22.4571523,99.1861998 21.5283723,97.2128186 C20.4176134,94.0083949 22.087109,91.7499449 26.5368591,90.4374685 C27.3663417,90.4374685 27.8515013,90.0310638 27.992338,89.2182544 Z M36.134846,80.6701549 L36.1299778,80.701365 C35.6952364,83.4779819 34.3184979,88.8391139 31.8720601,94.0278621 C31.331777,93.6681556 29.8334539,92.2767039 28.9165255,90.8236012 C28.5614862,90.2609526 28.2524039,89.4236203 27.9892785,88.3116043 L28.0314903,88.4798348 C28.0151044,88.0885423 27.9490203,87.6385912 27.8332381,87.1299812 C27.53448,85.9811736 26.6397144,83.1151138 31.3299827,84.4440072 C31.6245495,84.4441812 32.8205042,85.164959 34.5041623,81.3117337 C34.6777512,80.855057 35.5274858,80.196745 36.134846,80.6701549 Z M36.2068491,87.3350353 C36.766576,88.1655405 37.7346627,89.3055387 37.8507267,90.56365 C36.1676795,91.2358255 34.7286043,91.327019 33.5314784,90.8393201 C34.7978879,87.6248754 35.7564904,84.1454306 36.4084651,80.4009322 L36.323903,80.867402 C36.830471,81.5537746 37.0393663,83.3497724 36.2068491,87.3350353 Z" id="Combined-Shape-Copy-2" fill="url(#linearGradient-4)" transform="translate(29.528873, 91.870020) rotate(-22.000000) translate(-29.528873, -91.870020) "></path>
            <path d="M62.4879465,88.8716338 C60.4539312,92.7735489 56.1717767,92.1669849 55.9251664,94.8182903 C55.678556,97.4695956 61.016445,105.275597 51.9733183,109.544672 C51.3283873,109.826065 48.398412,109.311032 43.1833924,107.999573 C42.7221895,107.805328 42.2734267,107.606207 41.8371039,107.402211 C45.4031093,103.172643 48.4823111,98.5399891 51.0765661,93.5047747 C51.1367843,93.4474989 51.18868,93.365569 51.1895242,93.285593 C52.1580942,91.3902478 53.0593688,89.4365931 53.892142,87.4260746 L53.8204581,87.39668 C55.3705489,88.0208579 58.2275745,89.1713015 62.9740299,86.768483 C62.9859486,87.4549806 62.8442861,88.1592165 62.4879465,88.8716338 Z M43.7531928,84.9978656 C45.3398097,89.3435934 49.2422696,92.3285168 50.665805,93.3414268 C48.1684253,98.3653224 45.1003236,103.2846 41.4244173,107.350837 L41.5145667,107.249438 C36.7433572,104.959865 33.5026796,102.070397 31.7925341,98.5810356 C29.6719944,92.7062587 32.8592133,88.565767 41.3541909,86.1595604 C42.4460008,86.1595604 43.2253331,85.8053784 43.6921878,85.0970144 Z M59.0578379,67.9786261 C58.3380239,72.8866801 55.6903824,83.105691 50.8405522,92.9841636 C49.8053456,92.3233632 46.9470412,89.7736769 45.1974808,87.111085 C44.7586395,86.4432284 44.3565761,85.5642742 43.9912905,84.4742224 C44.3365949,83.4660233 44.2820828,82.0067566 43.8290963,80.0958337 C43.2587398,77.9896863 41.550551,72.7352434 50.5046995,75.1715479 C51.0670543,75.1718669 53.3502406,76.4932929 56.5644969,69.4290466 C56.8398242,68.7334606 58.0061313,67.7827168 59.0578379,67.9786261 Z M59.8150807,80.4717662 C60.8782861,81.9867155 62.7132796,84.0633863 62.9499329,86.3561726 L63.0032292,86.3340421 C59.4698695,87.834057 56.4722907,88.1030223 54.0104929,87.1409381 C56.425581,81.2465991 58.2556109,74.8676886 59.5002746,68.0028584 L59.4775328,68.1254357 C60.8012985,68.8299365 61.6866683,71.867997 59.8150807,80.4717662 Z" id="Combined-Shape" fill="url(#linearGradient-5)" transform="translate(47.080185, 88.785905) rotate(-22.000000) translate(-47.080185, -88.785905) "></path>
            <path d="M266.411375,81.4103975 C265.345938,83.5387148 263.102905,83.2078617 262.973728,84.6540283 C262.844551,86.1001948 265.640588,90.3580138 260.903712,92.6866003 C260.565891,92.8400872 259.031142,92.5591599 256.299465,91.8438186 C256.138368,91.7731657 255.980169,91.7013301 255.824867,91.6283118 L255.882205,91.4833825 C257.782888,89.14969 259.422305,86.5901546 260.800454,83.8047764 C260.831955,83.7737084 260.859548,83.7284416 260.859673,83.6843531 C261.36722,82.6508356 261.839166,81.5855227 262.275252,80.4892119 L262.237776,80.4729965 C263.008859,80.79632 264.397343,81.3785272 266.664553,80.3138075 C266.665641,80.670731 266.59,81.0385208 266.411375,81.4103975 Z M256.806266,78.6470072 C257.498005,81.2983002 259.787752,83.124682 260.585952,83.71604 C259.277332,86.4556515 257.670173,89.139035 255.744612,91.3570819 C255.749307,91.3805391 255.732216,91.4627388 255.705466,91.5703751 C253.052229,90.3014374 251.261605,88.679816 250.332825,86.7064348 C249.222066,83.5020111 250.891562,81.243561 255.341312,79.9310847 C256.170795,79.9310847 256.655954,79.52468 256.796791,78.7118706 Z M264.939299,70.1637711 L264.934431,70.1949812 C264.499689,72.9715981 263.122951,78.3327301 260.676513,83.5214783 C260.13623,83.1617718 258.637907,81.7703201 257.720978,80.3172174 C257.365939,79.7545688 257.056857,78.9172365 256.793731,77.8052205 L256.835943,77.973451 C256.819557,77.5821585 256.753473,77.1322073 256.637691,76.6235974 C256.338933,75.4747898 255.444167,72.60873 260.134436,73.9376233 C260.429003,73.9377973 261.624957,74.6585752 263.308615,70.8053499 C263.482204,70.3486732 264.331939,69.6903612 264.939299,70.1637711 Z M265.011302,76.8286515 C265.571029,77.6591567 266.539116,78.7991549 266.65518,80.0572662 C264.972133,80.7294417 263.533057,80.8206351 262.335931,80.3329363 C263.602341,77.1184916 264.560943,73.6390467 265.212918,69.8945484 L265.128356,70.3610182 C265.634924,71.0473908 265.843819,72.8433886 265.011302,76.8286515 Z" id="Combined-Shape-Copy" fill="url(#linearGradient-6)" transform="translate(258.333326, 81.363636) rotate(-22.000000) translate(-258.333326, -81.363636) "></path>
            <rect id="矩形" fill="url(#linearGradient-7)" fill-rule="nonzero" x="82.719697" y="12.5606061" width="141.356061" height="90.6287879" rx="8"></rect>
            <rect id="矩形" fill="url(#linearGradient-8)" fill-rule="nonzero" x="147.727273" y="41.8636364" width="65.3636364" height="6.54545455" rx="2.89"></rect>
            <rect id="矩形" fill="url(#linearGradient-9)" fill-rule="nonzero" x="90" y="18.9772727" width="4" height="4.37878788" rx="2"></rect>
            <rect id="矩形备份-3" fill="url(#linearGradient-9)" fill-rule="nonzero" x="97" y="18.9772727" width="4" height="4.37878788" rx="2"></rect>
            <rect id="矩形备份-4" fill="url(#linearGradient-9)" fill-rule="nonzero" x="104" y="18.9772727" width="4" height="4.37878788" rx="2"></rect>
            <rect id="矩形" fill="#FFFFFF" fill-rule="nonzero" x="148.409091" y="60.4393939" width="65.2727273" height="3.78787879" rx="1.89393939"></rect>
            <rect id="矩形" fill="#FFFFFF" fill-rule="nonzero" x="148.628788" y="71.2424242" width="65.2727273" height="3.78787879" rx="1.89393939"></rect>
            <path d="M218.939394,117.454545 C218.939394,117.454545 216.666667,121.242424 215.151515,122 C213.636364,122.757576 218.181818,123.515152 218.939394,122.757576 C219.69697,122 221.969697,121.242424 221.969697,120.484848 C221.80966,119.453849 221.556088,118.439562 221.212121,117.454545 L218.939394,117.454545 Z" id="路径" fill="url(#linearGradient-10)" fill-rule="nonzero"></path>
            <path d="M222.727273,118.969697 C222.727273,118.969697 220.454545,122.757576 218.939394,123.515152 C217.424242,124.272727 221.969697,125.030303 222.727273,124.272727 C223.484848,123.515152 225.757576,122.757576 225.757576,122 C225.597539,120.969001 225.343967,119.954713 225,118.969697 L222.727273,118.969697 Z" id="路径" fill="url(#linearGradient-10)" fill-rule="nonzero"></path>
            <path d="M214.393939,87.1515152 L213.636364,103.818182 C213.675649,104.869941 213.933657,105.901975 214.393939,106.848485 C215.151515,108.363636 218.939394,117.454545 218.939394,117.454545 C218.939394,117.454545 220.454545,118.212121 221.212121,117.454545 C221.969697,116.69697 218.181818,106.090909 218.181818,106.090909 C218.181818,106.090909 219.69697,91.6969697 220.454545,91.6969697 C221.212121,91.6969697 221.969697,108.363636 221.969697,108.363636 L222.727273,118.969697 C223.440223,119.340339 224.207254,119.596016 225,119.727273 C225.757576,119.727273 225.757576,110.636364 225.757576,110.636364 C225.757576,110.636364 227.909091,90.75 228.030303,89.4242424 C228.151515,88.0984848 214.393939,87.1515152 214.393939,87.1515152 Z" id="路径" fill="url(#linearGradient-11)" fill-rule="nonzero"></path>
            <path d="M224.75,62.9090909 C224.75,62.9090909 223.424242,60.2348485 223.409091,59.2272727 C223.409091,58.469697 224.257576,57 224.409091,55.5378788 C224.501769,54.4107402 224.388823,53.2761417 224.075758,52.1893939 L218.378788,48.8333333 L217.037879,50.5151515 C217.037879,50.5151515 216.151515,50.7878788 215.704545,52.5227273 C215.469604,53.7387561 215.469604,54.9885166 215.704545,56.2045455 C215.916667,57.0454545 216.621212,58.8106061 217.378788,59.2348485 C218.136364,59.6590909 219.304928,59.0145486 219.683716,59.4918213 C219.895837,59.7645486 219.123535,62.9090909 219.123535,62.9090909 L224.75,62.9090909 Z" id="路径" fill="#FED3CD" fill-rule="nonzero"></path>
            <path d="M224.810606,56.780303 C224.128788,58.0909091 223.295455,58.6515152 222.287879,58.4772727 C222.857279,57.7941719 223.364355,57.0614469 223.80303,56.2878788 C223.874833,56.010107 223.810134,55.7147444 223.628788,55.4924242 C223.413109,55.3164614 223.148747,55.2107164 222.871212,55.1893939 C222.75,53.5151515 222.386364,52.7272727 221.818182,52.1590909 C221.112462,51.4170455 220.189295,50.9183229 219.181818,50.7348485 C218.002232,50.7521577 216.840917,51.0289078 215.780303,51.5454545 C215.601973,50.8158099 215.393295,49.9555738 215.780303,49.3118286 C216.239371,48.4191744 217.446054,47.3556206 218.440308,47.2176514 C219.796716,46.9936762 221.120822,46.9278504 222.418945,47.3804932 C222.941175,47.5221611 223.679901,48.0060164 223.984695,48.3484367 C224.28949,48.6908569 224.208679,49.2792969 224.418457,49.4015152 C224.616546,49.6687328 225.100254,49.6990653 225.227448,50.0149731 C225.681811,50.4817505 225.914706,51.0416682 226.021729,51.3565674 C226.391275,53.3064048 225.681811,54.9972069 224.810606,56.780303 Z" id="头发" fill="url(#linearGradient-12)"></path>
            <path d="M212.689394,69.9469697 C212.689394,69.9469697 212.022727,73.6287879 211.348485,73.6287879 C210.674242,73.6287879 206.477273,68.7575758 205.992424,66.9318182 C205.772727,66.1060606 206.590909,65.7121212 206.060606,65.1818182 C205.727273,64.8484848 205.181818,66.6969697 204.545455,66.6969697 C203.909091,66.6969697 200,66.219697 200,66.6969697 C200,67.4545455 202.568182,67.5909091 203.030303,68.2121212 C205.022727,70.9090909 209.007576,77.6515152 211.363636,77.6515152 C213.037879,77.6515152 215.719697,71.9545455 215.719697,71.9545455 L212.689394,69.9469697 Z" id="路径" fill="#FED3CD" fill-rule="nonzero"></path>
            <path d="M232.575758,69.9469697 C232.575758,69.9469697 233.242424,73.6287879 233.916667,73.6287879 C234.590909,73.6287879 238.787879,68.7575758 239.280303,66.9318182 C239.5,66.1060606 238.674242,65.7121212 239.204545,65.1818182 C239.537879,64.8484848 240.083333,66.6969697 240.719697,66.6969697 C241.356061,66.6969697 245.265152,66.219697 245.265152,66.6969697 C245.265152,67.4545455 242.69697,67.5909091 242.234848,68.2121212 C240.242424,70.9090909 236.265152,77.6515152 233.901515,77.6515152 C232.227273,77.6515152 229.545455,71.9545455 229.545455,71.9545455 L232.575758,69.9469697 Z" id="路径" fill="#FED3CD" fill-rule="nonzero"></path>
            <path d="M230.795455,64.7651515 C232.730516,66.8018031 234.144429,69.2761502 234.916667,71.9772727 L233.977273,72.1666667 L229.765152,73.0075758 C229.765152,73.0075758 230.795455,81.25 229.765152,85.3712121 C229.143939,87.8636364 228.787879,89.4242424 228.787879,89.4242424 C226.007177,90.156366 223.05764,89.8882263 220.454545,88.6666667 C216.333333,86.6060606 213.636364,87.9090909 213.636364,87.9090909 C213.636364,87.9090909 216.558643,76.0984848 215.52834,73.0075758 C215.001804,71.2438747 213.027379,70.2211637 211.212121,69.9166667 C211.921086,68.0358439 212.868197,66.2536468 214.030303,64.6136364 C215.371212,62.6060606 218.386364,61.2651515 218.386364,61.2651515 C219.159302,62.1995879 220.310049,62.7388265 221.522727,62.7348485 C222.753664,62.7108394 223.869086,62.0042105 224.416667,60.9015152 C226.837402,61.624844 229.033131,62.9547983 230.795455,64.7651515 Z" id="路径" fill="url(#linearGradient-13)" fill-rule="nonzero"></path>
            <line x1="82.5757576" y1="31.0909091" x2="224.242424" y2="31.0909091" id="路径" stroke="#FFFFFF"></line>
            <path d="M140.151515,83.3030303 L140.151515,83.3030303 C140.151515,84.469697 139.439394,84.9393939 138.280303,84.9393939 L97.1590909,84.9393939 C95.9924242,84.9393939 95.2878788,84.469697 95.2878788,83.3030303 L95.2878788,83.3030303 C95.2878788,83.3030303 95.2878788,75.6363636 100.886364,72.8484848 C104.431818,71.0833333 103.068182,72.5151515 107.416667,70.7121212 C109.255639,70.0074711 111.051658,69.1954682 112.795455,68.280303 L112.833333,64.1287879 C112.833333,64.1287879 111.204545,62.8863636 110.69697,58.9772727 C109.681818,59.2727273 109.340909,57.780303 109.287879,56.8333333 C109.234848,55.8863636 108.69697,53.0454545 109.939394,53.3106061 C109.685041,51.8092298 109.568395,50.2877542 109.590909,48.7651515 C109.901515,45.5530303 112.992424,42.2045455 117.75,41.9469697 C123.348485,42.1969697 125.568182,45.5454545 125.878788,48.7651515 C125.894958,50.2881708 125.77325,51.8095283 125.515152,53.3106061 C126.757576,53.0530303 126.219697,55.9166667 126.159091,56.8333333 C126.098485,57.75 125.757576,59.2651515 124.742424,58.9772727 C124.234848,62.8863636 122.606061,64.1212121 122.606061,64.1212121 L122.606061,68.25 C122.606061,68.25 123.636364,68.8409091 127.984848,70.6363636 C132.333333,72.4318182 130.969697,71.0909091 134.515152,72.8560606 C140.113636,75.6439394 140.113636,83.3106061 140.113636,83.3106061 L140.151515,83.3030303 Z" id="路径" fill="url(#linearGradient-14)" fill-rule="nonzero"></path>
            <circle id="椭圆形" fill="#FFFFFF" fill-rule="nonzero" cx="153.401515" cy="3.06060606" r="3.03030303"></circle>
        </g>
    </g>
</svg>