<?xml version="1.0" standalone="no"?><!DOCTYPE svg PUBLIC "-//W3C//DTD SVG 1.1//EN" "http://www.w3.org/Graphics/SVG/1.1/DTD/svg11.dtd"><svg t="1669363679927" class="icon" viewBox="0 0 1024 1024" version="1.1" xmlns="http://www.w3.org/2000/svg" p-id="23703" xmlns:xlink="http://www.w3.org/1999/xlink" width="200" height="200"><path d="M113.777778 0h796.444444a113.777778 113.777778 0 0 1 113.777778 113.777778v796.444444a113.777778 113.777778 0 0 1-113.777778 113.777778H113.777778a113.777778 113.777778 0 0 1-113.777778-113.777778V113.777778a113.777778 113.777778 0 0 1 113.777778-113.777778z m398.222222 824.888889c172.8 0 312.888889-140.088889 312.888889-312.888889S684.8 199.111111 512 199.111111 199.111111 339.2 199.111111 512s140.088889 312.888889 312.888889 312.888889z m0-113.777778a28.444444 28.444444 0 0 1-28.444444-28.444444v-28.444445h-42.24a28.444444 28.444444 0 1 1 0-56.888889H540.444444a28.444444 28.444444 0 0 0 0-56.888889h-56.888888a85.333333 85.333333 0 0 1 0-170.666666v-28.444445a28.444444 28.444444 0 0 1 56.888888 0v28.444445h42.922667a28.444444 28.444444 0 0 1 0 56.888889H483.555556a28.444444 28.444444 0 0 0 0 56.888889h56.888888a85.333333 85.333333 0 0 1 0 170.666666v28.444445a28.444444 28.444444 0 0 1-28.444444 28.444444z" fill="#FC8C30" p-id="23704"></path></svg>