<?xml version="1.0" encoding="UTF-8"?>
<svg width="157px" height="46px" viewBox="0 0 157 46" version="1.1" xmlns="http://www.w3.org/2000/svg" xmlns:xlink="http://www.w3.org/1999/xlink">
    <title>logo</title>
    <defs>
        <polygon id="path-1" points="0.340781287 0.323297027 27.5357661 0.323297027 27.5357661 25.3990227 0.340781287 25.3990227"></polygon>
        <polygon id="path-3" points="0 44.2334578 87.7462924 44.2334578 87.7462924 0.517896968 0 0.517896968"></polygon>
    </defs>
    <g id="控件" stroke="none" stroke-width="1" fill="none" fill-rule="evenodd">
        <g id="logo">
            <g id="logo" fill="#FF752A">
                <path d="M50.3851511,33.1945045 C53.0330783,33.2397154 55.2659869,34.4670849 56.8314925,36.2372885 C57.1926009,36.6457037 57.4769097,37.1014538 57.7582068,37.5726787 C55.904477,40.7292486 52.7391319,43.0938693 49.5258999,44.1941021 C47.1128889,45.0209456 44.9655139,44.9860513 44.5517,44.9951542 C43.8921276,45.0091119 42.3305373,44.9884787 42.3305373,44.9884787 C42.3305373,44.9884787 41.5065235,43.0371281 41.8079993,40.7344069 C42.0266521,39.073741 42.5762957,37.6831268 43.7475638,36.2727897 C45.3308387,34.3639191 47.6053094,33.1471696 50.3851511,33.1945045 Z M21.2466278,24.9727672 C25.2667065,24.9727672 29.1645084,26.4395421 32.4924878,29.7551086 C34.7865349,32.0411412 35.9891251,34.7644148 36.5697897,37.0868588 C37.3651919,40.2625447 37.0784737,42.7800935 36.5414793,44.9541609 L36.5414793,44.9541609 L12.5029265,44.9541609 C9.89897078,44.8045705 7.38657217,43.7632029 5.3575588,42.1416793 C5.02988082,37.2246155 6.91252333,32.687748 9.88511675,29.7293172 C12.9176439,26.7117177 16.7398509,24.9727672 21.2466278,24.9727672 Z M31.6323633,0 C40.2384278,0 47.4542704,6.20906365 48.8378665,14.6107038 C55.2721609,16.4291527 60,22.3951699 60,29.5563931 C60,31.1888401 59.7129806,32.8188596 59.249774,34.3089985 C58.3357091,33.2175651 57.3379176,32.3558273 56.1636378,31.6794844 C54.4222462,30.6812037 52.4640089,30.0883038 50.2862152,30.0883038 C48.1189627,30.0883038 46.2577036,30.6347791 44.5244437,31.6330598 C43.0607351,32.4756816 41.7879712,33.6296214 40.737173,35.12947 C40.2083104,32.8971442 39.4424233,31.0243817 38.5148055,29.4881216 C36.5204272,26.1883334 34.0297132,23.73056 31.030014,22.002533 C28.0282067,20.2748094 24.7041425,19.3083886 20.9481939,19.3083886 C17.2097134,19.3083886 13.8910704,20.2675271 10.8958889,21.9952507 C7.90281557,23.7229743 5.36090184,26.1261304 3.40266451,29.4805359 C2.48408194,31.0541177 1.75222764,32.7487676 1.19595813,35.0448133 C1.10861749,35.4043765 1.01946981,35.8628574 0.953512565,36.2351645 C0.284904926,34.5113855 -0.0244014009,32.896234 0.0014996158,30.9791708 C0.0578192683,26.8919848 1.92088542,22.8196668 5.36752768,20.1582927 C5.22958971,19.5050105 5.17658298,18.9096832 5.17658298,18.2260581 C5.17658298,12.9257637 9.43730022,8.59189006 14.6970136,8.59189006 C15.309904,8.59189006 15.911952,8.62890837 16.6663944,8.78062278 C19.7468084,3.40416777 25.3962417,0 31.6323633,0 Z" id="Fill-8"></path>
            </g>
            <g id="编组" transform="translate(68.000000, 1.000000)">
                <g transform="translate(60.210526, 0.194600)">
                    <mask id="mask-2" fill="white">
                        <use xlink:href="#path-1"></use>
                    </mask>
                    <g id="Clip-2"></g>
                    <path d="M0.340781287,11.0843215 L0.340781287,8.37878128 L27.535869,8.37878128 L27.535869,11.0843215 L6.26096842,11.0843215 L3.88342456,20.2858522 C3.80365848,20.5936061 3.76557661,20.8801178 3.76557661,21.1479776 C3.76557661,21.7023491 3.98120234,22.1049161 4.41605614,22.3515337 C4.66976374,22.5002296 4.92707368,22.5743185 5.18335439,22.5743185 L6.0690152,22.5743185 L22.0731789,22.5743185 C22.850255,22.5743185 23.3324538,22.5396055 23.5187462,22.4712158 C24.0313076,22.2722638 24.2865591,21.8660701 24.2865591,21.2521166 C24.2865591,21.0132705 24.2628865,20.7910038 24.2139977,20.5822078 L22.7236585,14.3545952 L25.5422316,14.3545952 L26.8704655,20.1661702 C27.0474947,20.9391816 27.1370386,21.6287783 27.1370386,22.2328878 C27.1370386,23.2535531 26.6548398,24.0856285 25.6894129,24.729632 C25.0214363,25.1752016 23.9973427,25.3990227 22.618676,25.3990227 L5.05006784,25.3990227 C3.93745965,25.3990227 2.99776374,25.1264999 2.2304655,24.5814542 C1.30466433,23.9276067 0.842535673,23.0110804 0.842535673,21.8313571 C0.842535673,21.4251634 0.916126316,20.9350368 1.0633076,20.3599411 L3.43982222,11.0843215 L0.340781287,11.0843215 Z M0.856430409,2.98376214 L27.0773427,2.98376214 L27.0773427,0.323297027 L0.856430409,0.323297027 L0.856430409,2.98376214 Z" id="Fill-1" fill="#464646" mask="url(#mask-2)"></path>
                </g>
                <mask id="mask-4" fill="white">
                    <use xlink:href="#path-3"></use>
                </mask>
                <g id="Clip-10"></g>
                <path d="M0.631953216,3.55243332 L6.64580117,3.55243332 L6.64580117,0.826687077 L0.631953216,0.826687077 L0.631953216,3.55243332 Z M0.631953216,10.0354713 L0.631953216,7.29418193 L3.39700585,7.29418193 C4.39125146,7.29418193 5.12407018,7.54546247 5.59134503,8.04646924 C6.02105263,8.50706388 6.23616374,9.23396409 6.23616374,10.2271699 L6.23616374,21.5855684 C6.23616374,22.1446029 6.29946199,22.4886241 6.4265731,22.6165958 C6.57272515,22.7735814 6.89436257,22.8518151 7.39148538,22.8518151 L8.79691228,22.8518151 L8.79691228,25.5785976 L6.61595322,25.5785976 C5.65927485,25.5785976 5.00622222,25.4495896 4.65525146,25.1946824 C3.90390643,24.6340936 3.52823392,23.8683356 3.52823392,22.8968902 L3.52823392,11.3903138 C3.52823392,10.7520094 3.41707602,10.3494424 3.19270175,10.1826129 C3.05478363,10.0841731 2.77688889,10.0354713 2.35747368,10.0354713 L0.631953216,10.0354713 Z M9.03054971,8.01641919 L9.03054971,5.06944245 C9.8405614,4.58915985 10.409731,4.1031781 10.7432047,3.6109791 C11.171883,2.9830368 11.5527018,1.95200942 11.8836023,0.517896968 L14.6785029,0.517896968 L14.2848187,1.94682838 L23.7517661,1.94682838 C24.7665965,1.94682838 25.6290994,2.29084957 26.3413333,2.97785576 C27.074152,3.68558611 27.4395322,4.69226258 27.4395322,5.9984033 L27.4395322,20.8337992 C27.4395322,22.3062514 27.2388304,23.333652 26.8384561,23.9134107 C26.234807,24.7864162 25.4155322,25.3117739 24.3816608,25.4889656 C23.9426901,25.5677174 23.4198363,25.6019123 22.8151579,25.5920683 L21.7030643,25.5620183 L21.7030643,22.8373082 L22.6679766,22.8373082 C23.4501988,22.8373082 23.9864327,22.6896485 24.2777076,22.3958834 C24.581848,22.0912382 24.732117,21.4969726 24.732117,20.6125687 L24.732117,6.83825022 C24.732117,6.01342832 24.6060351,5.46786459 24.3518129,5.20259523 C23.9709942,4.81919812 23.4152047,4.62853577 22.6839298,4.62853577 L13.317848,4.62853577 C12.6159064,5.65023727 11.9808655,6.37661937 11.4163275,6.80820018 C10.907883,7.19159729 10.1133099,7.59468237 9.03054971,8.01641919 L9.03054971,8.01641919 Z M10.0108233,21.2617533 L10.0108233,10.1525628 C10.0108233,9.51425846 10.255345,8.94434383 10.7432047,8.44333706 C11.1811462,7.99155019 11.708117,7.76617486 12.3230877,7.76617486 L19.1124678,7.76617486 C19.9708538,7.76617486 20.6300819,8.00139417 21.0886082,8.47338711 C21.5666901,8.97439388 21.8054737,9.5930103 21.8054737,10.3292364 L21.8054737,21.1731575 C21.8054737,22.185015 21.5625731,22.9352299 21.0741988,23.4258746 C20.6058947,23.8978675 20.0732632,24.1336049 19.4788772,24.1336049 L12.7620585,24.1336049 C10.9186901,24.1336049 10.0011228,23.1756303 10.0108233,21.2617533 L10.0108233,21.2617533 Z M12.7039064,14.2777086 L19.0985731,14.2777086 L19.0985731,11.5809762 C19.0985731,11.1307436 19.0152047,10.8302432 18.8489825,10.6831016 C18.6642339,10.5157539 18.4048655,10.4323391 18.0734503,10.4323391 L14.1525614,10.4323391 C13.5283275,10.4323391 13.122807,10.5209349 12.9380585,10.6981266 C12.7810994,10.8447501 12.7039064,11.1105375 12.7039064,11.4939346 L12.7039064,14.2777086 Z M19.0985731,17.0029367 L12.7039064,17.0029367 L12.7327251,20.3773494 C12.7419883,20.7498664 12.8011696,21.0052917 12.9082105,21.1431074 C13.0543626,21.319781 13.3322573,21.4083768 13.7418947,21.4083768 L18.1475556,21.3933518 C18.4985263,21.3933518 18.7326784,21.339987 18.8489825,21.2317033 C19.0059415,21.0845617 19.0841637,20.7498664 19.0841637,20.2296897 L19.0985731,17.0029367 Z" id="Fill-9" fill="#464646" mask="url(#mask-4)"></path>
                <path d="M30.4817591,25.5935708 L30.4817591,22.8647159 L31.1991392,22.8647159 L31.1991392,18.3509921 C31.1991392,16.5516161 32.2057357,15.6527053 34.2173848,15.6527053 L54.0395135,15.6527053 C55.0558877,15.6527053 55.8128936,15.9086488 56.3100164,16.4189815 C56.7798643,16.8904563 57.0150456,17.4966382 57.0150456,18.2339005 L57.0150456,22.8647159 L57.7030924,22.8647159 L57.7030924,25.5935708 L30.4817591,25.5935708 Z M30.5985778,14.9439388 L30.5985778,12.215602 C31.3020632,12.146176 31.8187415,11.9104386 32.151186,11.5073535 C32.415186,11.1830203 32.576262,10.6177686 32.6349287,9.81108037 L30.5831392,9.81108037 L30.5985778,7.08222549 L32.6349287,7.08222549 L32.6194901,4.39792758 C32.6194901,3.82697674 32.8052678,3.28607595 33.1768234,2.7752252 C33.8211275,1.90999117 34.7006129,1.49188107 35.8132211,1.52089491 L36.3124023,1.53540183 L36.3124023,0.53287018 L39.0223906,0.518363262 L39.0223906,1.53540183 L53.2928,1.52089491 C54.3673263,1.52089491 55.1927766,1.82139535 55.7691509,2.42084192 C56.3455251,3.0218428 56.6321684,3.79848101 56.6321684,4.75179276 L56.6321684,7.08222549 L57.5415018,7.08222549 L57.5415018,9.81108037 L56.6321684,9.81108037 L56.6321684,11.3301619 C56.6321684,12.3829497 56.2467181,13.2725346 55.4753029,13.9999529 C54.7625544,14.6688254 53.8846129,15.0030026 52.8394199,15.0030026 L49.6446596,14.9884957 L49.6446596,12.2591228 L52.1940865,12.2741478 C52.7020164,12.2741478 53.1168,12.1363321 53.438952,11.8612187 C53.7708819,11.5669355 53.9324725,11.1731763 53.923724,10.6814954 L53.923724,9.81108037 L45.6007766,9.81108037 L45.6007766,13.1886017 L42.9057123,13.1886017 L42.8902737,9.81108037 L35.3310222,9.81108037 C35.2718409,11.4337827 34.8328702,12.6720518 34.0115368,13.5284781 C33.192262,14.3937121 32.0539228,14.8651869 30.5985778,14.9439388 L30.5985778,14.9439388 Z M33.9389754,22.8647159 L39.1103906,22.8647159 L39.1103906,18.3370032 L35.0376889,18.3370032 C34.3244257,18.3370032 33.9636772,18.6613365 33.9538994,19.3100029 L33.9389754,22.8647159 Z M35.3310222,7.08222549 L42.8902737,7.08222549 L42.8902737,4.97250515 L45.6007766,4.94297321 L45.6007766,7.08222549 L53.923724,7.08222549 L53.923724,5.60718281 C53.9324725,5.16420371 53.790952,4.82536356 53.498648,4.58962614 C53.2048,4.3632146 52.8481684,4.25078599 52.4292678,4.25078599 L36.8831158,4.25078599 C36.4045193,4.25078599 36.0257591,4.35596114 35.7473497,4.56734766 C35.469455,4.77821607 35.3310222,5.06110097 35.3310222,5.41548425 L35.3310222,7.08222549 Z M41.8069988,22.8647159 L46.5981099,22.8647159 L46.5981099,18.3370032 L41.8069988,18.3370032 L41.8069988,22.8647159 Z M49.2936889,22.8647159 L54.2602854,22.8647159 L54.2602854,19.2960141 C54.2602854,18.9608007 54.1820632,18.7105564 54.0251041,18.5432087 C53.897993,18.415237 53.619069,18.3509921 53.1914199,18.3509921 L49.2936889,18.3370032 L49.2936889,22.8647159 Z" id="Fill-11" fill="#464646" mask="url(#mask-4)"></path>
                <path d="M1.17328187,32.4387118 C1.19129357,32.2553029 1.22989006,32.0879553 1.28907135,31.9366688 C1.34825263,31.7853824 1.43728187,31.6600012 1.55564444,31.5589709 C1.66474386,31.4584586 1.78310643,31.3802249 1.91021754,31.3253059 C2.03784327,31.2703868 2.17010058,31.2382644 2.30647485,31.2289385 L2.33374971,31.2289385 L2.37440468,31.2289385 C2.49276725,31.2382644 2.60907135,31.2683144 2.72280234,31.3185705 C2.83653333,31.3693447 2.94769123,31.4398069 3.05730526,31.5309932 C3.16640468,31.6232158 3.2600655,31.7371987 3.33725848,31.8750144 C3.41445146,32.0128301 3.48032281,32.1729243 3.53538713,32.3563332 L5.47396023,38.8310815 L7.30343392,32.4387118 C7.34872047,32.2553029 7.40841637,32.0879553 7.48097778,31.9366688 C7.55353918,31.7853824 7.64514152,31.664146 7.75424094,31.5724416 C7.86334035,31.4719293 7.97295439,31.3916232 8.0820538,31.3320412 C8.19115322,31.2729773 8.30488421,31.2382644 8.42324678,31.2289385 L8.44383158,31.2289385 C8.44794854,31.2289385 8.45515322,31.2242755 8.46441637,31.2154678 L8.49169123,31.2154678 L8.51845146,31.2154678 L8.54624094,31.2154678 C8.6826152,31.2154678 8.81229942,31.2382644 8.93529357,31.2838575 C9.05828772,31.3294507 9.17407719,31.4030215 9.28369123,31.5035337 C9.39279064,31.5957563 9.48130526,31.7035219 9.54974971,31.8268307 C9.61819415,31.9506576 9.65679064,32.0905458 9.66553918,32.245977 L10.7441825,40.9889856 L9.33824094,40.9889856 L8.47779649,33.0847878 L6.33440468,40.3429096 C6.30712982,40.4708814 6.26596023,40.58331 6.21141053,40.6796774 C6.15686082,40.7760447 6.08841637,40.8511699 6.00659181,40.9060889 C5.92476725,40.9615261 5.84294269,41.0029744 5.76111813,41.0304339 C5.67877895,41.0578934 5.59232281,41.0760271 5.50123509,41.0848349 L5.47396023,41.0848349 L5.44668538,41.0848349 C5.35559766,41.0848349 5.26708304,41.0739547 5.1806269,41.0511581 C5.09417076,41.0278434 5.0097731,40.9983115 4.92794854,40.9615261 C4.84612398,40.9060889 4.77973801,40.8402897 4.72981988,40.7620559 C4.67990175,40.6848584 4.64130526,40.5905634 4.61403041,40.4802072 L2.34712982,33.0847878 L1.4872,40.9889856 L0.0941239766,40.9889856 L1.17328187,32.4387118 Z" id="Fill-12" fill="#464646" mask="url(#mask-4)"></path>
                <path d="M16.7659041,37.1952711 C16.7659041,36.9937286 16.7273076,36.7942585 16.6496,36.5973789 C16.572407,36.4004993 16.4561029,36.2144999 16.301717,36.0404168 C16.1468164,35.8570079 15.9286175,35.7191922 15.6460912,35.6280059 C15.3640795,35.5368195 15.0228865,35.4907083 14.6219977,35.4907083 C14.5581848,35.4907083 14.4923135,35.4953712 14.423869,35.5036609 C14.3559392,35.5135049 14.2808047,35.5269756 14.1989801,35.5451092 C14.1171556,35.5544351 14.035331,35.5725687 13.9529918,35.6005464 C13.8711673,35.6280059 13.7893427,35.6647913 13.7075181,35.7103845 C13.5613661,35.7751475 13.4208749,35.8637433 13.283986,35.9782443 C13.1476117,36.0932635 13.0153544,36.2279706 12.8877287,36.384438 C12.7698807,36.5305434 12.6741614,36.7118799 12.6010854,36.9268931 C12.528524,37.1424245 12.4827228,37.3874878 12.4652257,37.662083 C12.4652257,38.0289008 12.5146292,38.3475349 12.6154947,38.6174672 C12.7148164,38.8879176 12.8656,39.1148472 13.0657871,39.2987742 C13.2747228,39.4728572 13.4908632,39.6122273 13.7142082,39.7174024 C13.9370386,39.8225776 14.1711906,39.8888949 14.4176936,39.9168725 L14.4516585,39.9168725 L14.4856234,39.9168725 C14.5036351,39.9261984 14.5201029,39.9303432 14.533483,39.9303432 L14.5679626,39.9303432 L14.6086175,39.9303432 L14.6497871,39.9303432 L14.683752,39.9303432 L14.717717,39.9303432 C14.827331,39.9303432 14.9297404,39.924126 15.024945,39.9096191 C15.1206643,39.8966665 15.2138105,39.8707613 15.3048982,39.834494 C15.3501848,39.8163603 15.3934129,39.7971905 15.4350971,39.7795749 C15.475752,39.7609232 15.5184655,39.7427895 15.5642667,39.7241378 C15.6002901,39.6966782 15.6414596,39.6692187 15.6872608,39.6422773 C15.733062,39.6142997 15.773717,39.5826953 15.810255,39.5453918 C15.8555415,39.5179323 15.8987696,39.4837374 15.9399392,39.4428072 C15.9805942,39.4013588 16.0238222,39.362501 16.0696234,39.3257156 C16.1149099,39.2796044 16.1601965,39.2360836 16.2059977,39.1946353 C16.2512842,39.1542231 16.2970854,39.1101843 16.3428865,39.0645911 L16.3428865,40.5629485 C16.3336234,40.5810821 16.3243602,40.5950709 16.3150971,40.6038787 L16.3150971,40.6178675 C16.2059977,40.6914383 16.0922667,40.7572376 15.9739041,40.8173377 C15.8555415,40.8764015 15.733062,40.9297663 15.6054363,40.9748413 C15.4778105,41.0116267 15.3229099,41.0416768 15.1412491,41.0644734 C14.9585591,41.0872699 14.7496234,41.0991863 14.5128982,41.0991863 L14.4923135,41.0991863 L14.4722433,41.0991863 L14.4310737,41.0991863 L14.4037988,41.0991863 L14.376524,41.0991863 L14.3559392,41.0991863 L14.3353544,41.0991863 C13.9164538,41.0991863 13.5274012,41.023025 13.1681965,40.8722567 C12.8084772,40.7209703 12.4786058,40.4893777 12.1780678,40.1779971 C11.8775298,39.8572906 11.6526409,39.4889185 11.5023719,39.0713265 C11.3515883,38.6542526 11.2769684,38.1848502 11.2769684,37.662083 C11.2769684,37.2040789 11.3495298,36.7776791 11.4956819,36.384438 C11.6413193,35.9896426 11.8595181,35.6280059 12.150793,35.2979735 C12.4420678,34.9679411 12.8012725,34.7202873 13.2294363,34.5555302 C13.6570854,34.390773 14.1531789,34.3083945 14.717717,34.3083945 C15.2544655,34.3083945 15.733062,34.3819653 16.151448,34.5285888 C16.5698339,34.6752122 16.9208047,34.8948884 17.203331,35.1881354 C17.4940912,35.4808643 17.7102316,35.7906906 17.8512374,36.1160601 C17.9922433,36.4409114 18.0632608,36.7776791 18.0632608,37.1263633 L18.0632608,40.9888301 L16.7659041,40.9888301 L16.7659041,37.1952711 Z" id="Fill-13" fill="#464646" mask="url(#mask-4)"></path>
                <path d="M20.2064468,34.3907212 L20.2064468,35.0367972 C20.2249731,35.0279894 20.2409263,35.0140006 20.2543064,34.9953488 C20.2671719,34.9772152 20.288786,34.9544186 20.3160608,34.926441 C20.3335579,34.8989815 20.3562012,34.87204 20.3845053,34.8445805 C20.4112655,34.817121 20.4385404,34.7891434 20.4663298,34.7616838 C20.5388912,34.6886311 20.6181427,34.6202414 20.7051135,34.5554784 C20.7915696,34.4912334 20.8934643,34.4321696 21.0118269,34.3772505 C21.1214409,34.3218134 21.2449497,34.2782926 21.3802947,34.2466883 C21.5171836,34.2140477 21.6623064,34.1985046 21.8177216,34.1985046 L22.2546339,34.171045 L22.2546339,35.3663115 L21.9268211,35.3663115 C21.6715696,35.4124227 21.4533708,35.4808125 21.2711953,35.5725169 C21.0895345,35.6647395 20.9341193,35.7792405 20.8070082,35.91602 C20.6886456,36.0538357 20.5908678,36.1978687 20.5141895,36.3496732 C20.4354526,36.5009597 20.3747275,36.6543185 20.3294409,36.8102679 C20.2929029,36.9294319 20.2651135,37.0434148 20.2476164,37.153771 C20.2290901,37.2641272 20.2193123,37.3693023 20.2193123,37.4698145 C20.2110784,37.5796526 20.2064468,37.67602 20.2064468,37.7583986 L20.2064468,37.9920636 L20.2064468,40.9887783 L19.0181895,40.9887783 L19.0181895,34.3907212 L20.2064468,34.3907212 Z" id="Fill-14" fill="#464646" mask="url(#mask-4)"></path>
                <path d="M24.0841591,31.3529208 L24.0841591,36.7686641 L24.7258901,36.7686641 C24.8072,36.7873159 24.8895392,36.7893883 24.9718784,36.7753995 C25.0537029,36.7619288 25.1262643,36.7412046 25.1895626,36.7142632 C25.2626386,36.6868037 25.3341708,36.6474277 25.401586,36.5971716 C25.4695158,36.5463974 25.5353871,36.4800801 25.5992,36.3971834 C25.6269895,36.3521083 25.6588959,36.3065152 25.6949193,36.2604039 C25.7314573,36.2148107 25.7679953,36.1640365 25.8045333,36.1096356 C25.8400421,36.0536803 25.8770947,35.992544 25.9131181,35.9236361 C25.9501708,35.8547283 25.9861942,35.783748 26.0232468,35.7101772 L26.7740772,34.3905658 L28.1666386,34.3905658 C28.1573754,34.4273512 28.1460538,34.4594737 28.1326737,34.4869332 C28.1187789,34.5149108 28.1074573,34.5371893 28.0981942,34.555841 C28.0801825,34.5827825 28.0662877,34.6081696 28.0575392,34.6314843 C28.0477614,34.6542808 28.0348959,34.675005 28.0163696,34.6926205 C28.0065918,34.7200801 27.9962994,34.7459853 27.9824047,34.7693 C27.9685099,34.7920966 27.9566737,34.8123026 27.9484398,34.8304363 C27.9299135,34.8578958 27.9160187,34.8827648 27.9077848,34.9055614 C27.898007,34.9288761 27.8841123,34.9496002 27.8666152,34.968252 C27.829048,35.0319788 27.7955977,35.0941513 27.7642058,35.1537333 C27.7317848,35.2133153 27.6978199,35.2703067 27.6612819,35.3257439 C27.6252585,35.3899888 27.5902643,35.4490527 27.5588725,35.5039717 C27.5264515,35.5594089 27.4976327,35.6143279 27.4698433,35.669247 C27.3612585,35.8614636 27.2516444,36.0407277 27.1420304,36.2054848 C27.0334456,36.370242 26.9238316,36.5215284 26.8152468,36.6583079 C26.7056327,36.7961236 26.6027088,36.9044074 26.5069895,36.9816049 C26.4112702,37.0598387 26.3191532,37.1075043 26.2275509,37.1266741 C26.464276,37.1536155 26.6737263,37.2085346 26.8559018,37.2914313 C27.0375626,37.3732917 27.187317,37.4883109 27.3067088,37.6349344 C27.4245567,37.7810397 27.5177029,37.9354348 27.586662,38.095529 C27.6540772,38.2556232 27.7019368,38.4229709 27.7297263,38.5965358 L27.7297263,38.6732152 L27.7297263,38.7343515 L27.7297263,38.7623291 C27.7297263,38.7706188 27.7338433,38.7804628 27.7425918,38.7897886 L27.7425918,38.831237 L27.7425918,38.8581784 L27.7425918,40.989141 L26.5548491,40.989141 L26.5548491,39.2571186 C26.5548491,39.0830356 26.5296327,38.9198328 26.4807439,38.7690645 C26.4303111,38.6172599 26.354662,38.4830709 26.2553404,38.3628708 C26.163738,38.234899 26.0247906,38.1416403 25.8390129,38.0815402 C25.6522058,38.0219582 25.4262877,37.9919082 25.1628023,37.9919082 L24.0841591,37.9649667 L24.0841591,40.989141 L22.8959018,40.989141 L22.8959018,31.3529208 L24.0841591,31.3529208 Z" id="Fill-15" fill="#464646" mask="url(#mask-4)"></path>
                <path d="M33.4362947,36.12264 C33.4187977,36.1138322 33.400786,36.1019158 33.3822596,36.0889632 C33.3632187,36.0744563 33.3457216,36.0537321 33.3277099,36.0262726 C33.3091836,36.0081389 33.2896281,35.9848243 33.2659556,35.9578828 C33.2427977,35.9304233 33.2180959,35.9029638 33.1908211,35.8749862 C33.1635462,35.8568525 33.1342129,35.8361283 33.1028211,35.8133318 C33.0704,35.7905352 33.0410667,35.7656662 33.0137918,35.7382067 C32.9767392,35.7195549 32.9407158,35.6988307 32.9046924,35.6760341 C32.8681544,35.6537557 32.8264702,35.6330315 32.7816982,35.6143797 C32.6900959,35.5687866 32.5840842,35.5366641 32.4605754,35.5180124 C32.3370667,35.4998787 32.1991485,35.4905528 32.044248,35.4905528 C31.6886456,35.4905528 31.3773006,35.5542797 31.1091836,35.6827695 C30.840552,35.8112593 30.6151485,35.9993312 30.4334877,36.2464669 C30.2513123,36.4936026 30.1144234,36.7557633 30.0233357,37.0298404 C29.9317333,37.3044357 29.887476,37.5888749 29.887476,37.8821219 L29.887476,37.9100995 L29.887476,37.9235702 C29.887476,38.1893577 29.9348211,38.4437468 30.0305404,38.6862196 C30.1252304,38.9292105 30.265207,39.1608031 30.4463532,39.3804792 C30.628014,39.6006735 30.8534175,39.7654307 31.1230784,39.8757869 C31.3901661,39.985625 31.6984234,40.040544 32.044248,40.040544 C32.4173474,40.040544 32.729207,39.9975414 32.9787977,39.9099817 C33.2299322,39.8229402 33.4187977,39.692378 33.5464234,39.518295 C33.6740491,39.3348861 33.789324,39.1193547 33.8943064,38.872219 C33.9987743,38.6250833 34.0919205,38.345307 34.1747743,38.0334083 L34.1747743,38.0194195 L34.1881544,38.0064669 L34.1881544,37.99196 L35.3758971,38.0608678 L35.3758971,38.1090515 C35.3758971,38.1230403 35.380014,38.1344386 35.3897918,38.1432464 L35.3897918,38.1846947 L35.3897918,38.2261431 L35.3897918,38.2603379 C35.3897918,38.2738087 35.3939088,38.2857251 35.4026573,38.2945328 L35.4026573,38.3354631 L35.4026573,38.3629226 C35.4026573,38.4370115 35.3985404,38.5126547 35.3897918,38.5903703 C35.380014,38.668086 35.3671485,38.7483921 35.3486222,38.8312888 C35.3388444,38.8680742 35.3280374,38.9084863 35.3136281,38.9545976 C35.3007626,39.0007089 35.2889263,39.0421572 35.2801778,39.0779064 C35.2621661,39.1240177 35.2467275,39.1675384 35.2323181,39.2089868 C35.2184234,39.2504351 35.2029848,39.2934377 35.1844585,39.339549 C35.0753591,39.5685511 34.929207,39.7928902 34.7480608,40.0130845 C34.5653708,40.2327607 34.3420257,40.4389661 34.0780257,40.6317009 C33.8238035,40.8239176 33.525324,40.9684686 33.1846456,41.0643179 C32.8424234,41.1606853 32.4626339,41.208869 32.044248,41.208869 C31.5615345,41.208869 31.1158737,41.1332258 30.7062363,40.9824575 C30.2965988,40.8306529 29.928131,40.6000966 29.6008327,40.2881978 C29.2632421,39.9669732 29.0131368,39.6074089 28.8489731,39.2089868 C28.6858386,38.8100465 28.6034994,38.3681036 28.6034994,37.8821219 C28.6034994,37.3691987 28.6719439,36.9153394 28.8078035,36.5215802 C28.9441778,36.1273029 29.1500257,35.7879447 29.4227743,35.5040236 C29.6960374,35.2201024 29.9826807,34.9869555 30.2827041,34.8030286 C30.5832421,34.6206559 30.8971602,34.486985 31.2249731,34.4046064 C31.2609965,34.3952805 31.2949614,34.3885452 31.3268678,34.3844004 C31.3587743,34.3792193 31.3932538,34.372484 31.4297918,34.3631581 C31.4663298,34.3631581 31.5002947,34.3616038 31.5327158,34.3564227 C31.5641076,34.3517598 31.5980725,34.3450244 31.6346105,34.3362167 C31.7076865,34.3263727 31.7776749,34.3201554 31.8461193,34.3154925 C31.9145637,34.3103115 31.9809497,34.308239 32.044248,34.308239 C32.4173474,34.308239 32.7652304,34.3616038 33.0889263,34.4662608 C33.4110784,34.571436 33.7095579,34.7299759 33.9828211,34.9408443 C34.2463064,35.1517127 34.4861193,35.3848596 34.7002012,35.6413212 C34.9137684,35.8983009 35.1021193,36.1734142 35.266283,36.4661431 L30.7474058,38.9271381 L30.2142596,37.9650185 L33.4362947,36.12264 Z" id="Fill-16" fill="#464646" mask="url(#mask-4)"></path>
                <path d="M36.7687673,32.7685888 L38.0517146,32.7685888 L38.0517146,34.390773 L40.536814,34.390773 L40.536814,35.5725687 L38.0517146,35.5725687 L38.0517146,38.9272935 C38.0517146,39.0552652 38.0614924,39.1697663 38.0795041,39.2713147 C38.0970012,39.3718269 38.1253053,39.4681943 38.1613287,39.5588625 C38.1978667,39.650567 38.2776327,39.7174024 38.4001123,39.7588508 C38.5225918,39.7992629 38.6934456,39.819987 38.9126737,39.819987 L40.4277146,39.7930456 L40.4277146,40.9888301 L38.8169544,40.9888301 L38.7891649,40.9888301 L38.7618901,40.9888301 L38.7413053,40.9888301 C38.7366737,40.9888301 38.7299836,40.9934931 38.7212351,41.0033371 L38.6934456,41.0033371 L38.6666854,41.0033371 L38.645586,41.0033371 L38.6255158,41.0033371 C38.3162292,41.0033371 38.047083,40.9572258 37.8201357,40.8655213 C37.5921591,40.7738169 37.405352,40.6318563 37.2602292,40.4391216 C37.1145918,40.2469049 37.0034339,40.0406994 36.9257263,39.819987 C36.8480187,39.600829 36.8006737,39.3718269 36.7816327,39.133499 C36.7733988,39.1148472 36.7687673,39.094123 36.7687673,39.0713265 L36.7687673,38.9962014 L36.7687673,38.9335107 L36.7687673,38.8583856 L36.7687673,38.8309261 L36.7687673,32.7685888 Z" id="Fill-17" fill="#464646" mask="url(#mask-4)"></path>
                <path d="M41.7114854,40.9885711 L42.8997427,40.9885711 L42.8997427,34.390514 L41.7114854,34.390514 L41.7114854,40.9885711 Z M41.6708304,32.5828484 C41.7063392,32.496325 41.7655205,32.4206818 41.8478596,32.3564369 C41.9204211,32.3015178 41.9996725,32.2579971 42.0866433,32.2253565 C42.1725848,32.193234 42.261614,32.1771728 42.3532164,32.1771728 C42.452538,32.1771728 42.5441404,32.1911616 42.6264795,32.2186211 C42.7077895,32.2460807 42.789614,32.2921919 42.8719532,32.3564369 C42.9537778,32.4206818 43.0150175,32.496325 43.0561871,32.5828484 C43.0968421,32.670408 43.1174269,32.7729926 43.1174269,32.8921566 C43.1174269,33.0113206 43.0968421,33.1170138 43.0561871,33.2087183 C43.0150175,33.2999046 42.9578947,33.3781384 42.8848187,33.4418652 C42.8035088,33.5061101 42.7221988,33.5522214 42.6398596,33.5796809 C42.5575205,33.6071404 42.4710643,33.6211292 42.3799766,33.6211292 C42.2888889,33.6304551 42.1983158,33.6211292 42.1067135,33.5936697 C42.016655,33.5656921 41.9296842,33.520617 41.8478596,33.4563721 C41.7655205,33.3921272 41.7063392,33.3113029 41.6708304,33.2154536 C41.6337778,33.1190863 41.6157661,33.0113206 41.6157661,32.8921566 L41.6157661,32.8646971 C41.6157661,32.7641849 41.6337778,32.670408 41.6708304,32.5828484 L41.6708304,32.5828484 Z" id="Fill-18" fill="#464646" mask="url(#mask-4)"></path>
                <path d="M44.9469006,36.9888066 C44.9469006,36.6225069 45.0101988,36.2758952 45.1378246,35.9510439 C45.2649357,35.6261925 45.4563743,35.3210291 45.7116257,35.0365899 C45.9756257,34.7614766 46.2849123,34.5537168 46.64,34.4112382 C46.9950877,34.2692776 47.4000936,34.1982973 47.8555322,34.1982973 C47.9275789,34.1982973 48.0068304,34.2029603 48.0943158,34.211768 C48.1807719,34.2210939 48.2734035,34.2350827 48.374269,34.2532164 C48.4741053,34.2718681 48.5775439,34.2946647 48.6820117,34.3221242 C48.7854503,34.3490656 48.8930058,34.3863691 49.0031345,34.4319623 C49.1935439,34.514859 49.3752047,34.6205523 49.5476023,34.748524 C49.7215439,34.8764957 49.8898246,35.031927 50.0529591,35.2153359 C50.2171228,35.389937 50.3406316,35.6054684 50.4229708,35.8614118 C50.5037661,36.1178734 50.5449357,36.4116385 50.5449357,36.7411528 L50.5449357,36.7753477 L50.5449357,36.8240495 L50.5449357,36.8582443 L50.5449357,36.906428 L50.5449357,40.9890892 L49.2480936,40.9890892 L49.2480936,37.0986447 C49.2480936,36.8976203 49.2192749,36.697632 49.1595789,36.5012705 C49.0993684,36.3033547 49.0103392,36.1178734 48.8930058,35.9432723 C48.7746433,35.7608996 48.6197427,35.6230839 48.4288187,35.5318976 C48.2378947,35.439675 48.0094035,35.3945999 47.7454035,35.3945999 C47.5004444,35.3945999 47.2843041,35.4350121 47.0974971,35.5179087 C46.9101754,35.6002873 46.7485848,35.7241142 46.6122105,35.8888714 C46.4758363,36.0536285 46.3698246,36.2308201 46.2910877,36.4178558 C46.2144094,36.6064457 46.1624327,36.8053977 46.1351579,37.0162661 L46.1351579,40.9890892 L44.9469006,40.9890892 L44.9469006,36.9888066 Z" id="Fill-19" fill="#464646" mask="url(#mask-4)"></path>
                <path d="M53.139083,42.8170127 C53.2481825,42.8444722 53.3526503,42.8724498 53.4530012,42.8999093 C53.553352,42.9175249 53.6552468,42.938249 53.7602292,42.9610456 C53.8646971,42.9843603 53.9624749,43.0004215 54.0535626,43.0102655 L54.1359018,43.0102655 C54.1631766,43.0102655 54.195083,43.0138923 54.2316211,43.0232181 C54.2588959,43.0232181 54.2861708,43.0252906 54.312931,43.0299535 C54.3402058,43.0346164 54.3685099,43.0377251 54.3952702,43.0377251 L54.4770947,43.0377251 C54.503855,43.0377251 54.5316444,43.0418699 54.5589193,43.0506777 L54.6479485,43.0506777 L54.7364632,43.0506777 C55.064276,43.0506777 55.3617263,43.0071569 55.6313871,42.9206335 C55.8989895,42.8330739 56.1382877,42.7019935 56.347738,42.5284286 C56.5571883,42.3543456 56.7162058,42.1553936 56.8258199,41.9305364 C56.9344047,41.7056791 56.9941006,41.4559529 57.0028491,41.1813577 L57.0028491,41.1538981 L57.0028491,41.1264386 L57.0028491,41.1057145 L57.0028491,41.0849903 C56.9941006,41.0761825 56.989469,41.0663385 56.989469,41.0575308 L56.989469,41.0305893 L56.989469,41.0098652 L56.989469,40.989141 L56.989469,37.9649667 C56.989469,37.5986671 56.9369778,37.2660442 56.8325099,36.9681342 C56.7280421,36.6707424 56.5705684,36.4070274 56.3611181,36.1780253 C56.160931,35.9490233 55.9396444,35.7770127 55.699317,35.6619935 C55.4579602,35.5480106 55.2057965,35.490501 54.9417965,35.490501 L54.907317,35.490501 L54.873352,35.490501 C54.8548257,35.4998269 54.840931,35.5039717 54.8321825,35.5039717 L54.7910129,35.5039717 L54.7091883,35.5039717 L54.6407439,35.5039717 C54.3952702,35.5407571 54.1606035,35.6143279 53.9377731,35.724166 C53.7144281,35.8340041 53.4982877,35.9847724 53.2888374,36.1780253 C53.0886503,36.370242 52.9383813,36.6178958 52.838545,36.9199505 C52.7387088,37.2225234 52.688276,37.5800153 52.688276,37.9919082 C52.688276,38.2582137 52.7387088,38.5100124 52.838545,38.7483403 C52.9383813,38.9866682 53.0886503,39.2110074 53.2888374,39.4218758 C53.4982877,39.6234183 53.7396444,39.7767772 54.0129076,39.8824704 C54.2861708,39.9876456 54.5954573,40.0410103 54.9417965,40.0410103 L55.1527906,40.0410103 C55.2212351,40.0410103 55.2871064,40.0358293 55.3509193,40.0265034 C55.4234807,40.0182137 55.4944982,40.0057792 55.5629427,39.9928266 C55.6313871,39.9783197 55.6967439,39.9575955 55.7605567,39.9306541 C55.823855,39.9125205 55.8902409,39.8917963 55.9586854,39.8684816 C56.0266152,39.845685 56.0924865,39.8161531 56.156814,39.7798858 C56.2288608,39.7425823 56.300393,39.7011339 56.3683228,39.6550227 C56.4362526,39.6104657 56.502124,39.5591734 56.5659368,39.5042543 L56.5659368,40.7689467 C56.4568374,40.8611693 56.3384749,40.9316314 56.2113637,40.9824057 C56.0832234,41.0326618 55.9519953,41.0761825 55.8151064,41.1124498 C55.6792468,41.1409455 55.5284632,41.163224 55.3642994,41.1813577 C55.2006503,41.2000094 55.027738,41.2088172 54.845048,41.2088172 C54.2542643,41.1813577 53.744276,41.0803273 53.3166269,40.9062443 C52.8884632,40.7331975 52.5426386,40.4803627 52.2786386,40.1508484 C52.0239018,39.8202979 51.8304047,39.4565888 51.6981474,39.0571304 C51.5664047,38.6592264 51.5000187,38.2302361 51.5000187,37.7727501 C51.5000187,37.3142278 51.5571415,36.9044074 51.6708725,36.5417345 C51.7846035,36.1795796 51.9554573,35.8713076 52.1834339,35.6143279 C52.4103813,35.3578664 52.6496795,35.1402626 52.8997848,34.9615166 C53.1498901,34.7822526 53.4118316,34.6428825 53.6856094,34.5418522 C53.7941942,34.4957409 53.9032936,34.4594737 54.0129076,34.4320141 C54.122007,34.4045546 54.2316211,34.3822761 54.3402058,34.3636244 C54.4498199,34.3449726 54.5542877,34.3309838 54.654124,34.322176 C54.7549895,34.3133683 54.8501942,34.3081872 54.9417965,34.3081872 C55.3694456,34.3081872 55.779083,34.3822761 56.1701942,34.5283815 C56.5607906,34.675005 56.9256561,34.8946812 57.2627322,35.1879282 C57.6080421,35.4718493 57.865352,35.8044722 58.0336327,36.1847607 C58.2019135,36.5655673 58.2863111,36.9841955 58.2863111,37.4421996 L58.2863111,40.989141 C58.2863111,41.0435419 58.2796211,41.1238481 58.2662409,41.2295414 C58.2528608,41.3347165 58.2317614,41.4611339 58.2050012,41.6077574 C58.1777263,41.7631887 58.1365567,41.9191381 58.0814924,42.0745693 C58.0269427,42.2305187 57.9538667,42.3957939 57.8632936,42.5693588 C57.7541942,42.7807454 57.6106152,42.9796974 57.4330713,43.1677692 C57.2555275,43.355841 57.0440187,43.5366594 56.798545,43.7112605 C56.5525567,43.8853435 56.2587088,44.0153877 55.9170012,44.1024292 C55.5758082,44.1889526 55.1826386,44.2335096 54.7364632,44.2335096 C54.4812117,44.2335096 54.2444865,44.2241837 54.0268023,44.2055319 C53.8080889,44.1879164 53.6073871,44.1552758 53.4257263,44.1091646 C53.3346386,44.091549 53.2481825,44.0708248 53.1663579,44.0475102 C53.085048,44.0247136 53.0068257,44.0039894 52.9342643,43.9858558 C52.8611883,43.9583962 52.7927439,43.9330091 52.7294456,43.9102125 C52.6656327,43.8868979 52.6069661,43.8661737 52.5513871,43.84804 C52.5426386,43.8392323 52.5333754,43.8324969 52.5246269,43.827834 C52.5148491,43.8226529 52.5061006,43.8205805 52.497352,43.8205805 L52.4834573,43.8205805 L52.4700772,43.8071098 L52.7973754,42.7206453 C52.9152234,42.7579488 53.029469,42.7895531 53.139083,42.8170127" id="Fill-20" fill="#464646" mask="url(#mask-4)"></path>
                <path d="M63.2837333,34.5212317 C63.4659088,34.0311051 63.7391719,33.5886441 64.1030082,33.1943668 C64.4761076,32.7912817 64.8625871,32.4571045 65.263476,32.191317 C65.6643649,31.9255296 66.0822363,31.7245052 66.5196632,31.5866894 C66.6194994,31.549904 66.7224234,31.5177816 66.8274058,31.490322 C66.9313591,31.4628625 67.0337684,31.4447289 67.1341193,31.4348849 C67.2344702,31.4172694 67.3363649,31.4027624 67.4408327,31.3939547 C67.5458152,31.3851469 67.6482246,31.380484 67.7485754,31.380484 L69.1416515,31.3530244 L69.1416515,32.5482908 L68.0630082,32.5482908 C67.4439205,32.6218616 66.8994526,32.7638222 66.4306339,32.9752087 C65.9618152,33.1860771 65.568131,33.478806 65.2495813,33.8544316 C64.9402947,34.2212493 64.7056281,34.6062008 64.5466105,35.0092858 C64.387593,35.4123709 64.3078269,35.8294448 64.3078269,36.2599894 C64.3078269,36.352212 64.3124585,36.4573871 64.321207,36.5765511 C64.3304702,36.6951969 64.3489965,36.8236868 64.3762713,36.9615025 C64.3937684,37.0257474 64.4097216,37.0946553 64.424131,37.1671899 C64.4369965,37.2412788 64.4575813,37.3091504 64.4853708,37.3733953 C64.5033825,37.446448 64.5260257,37.5179464 64.5538152,37.5868543 C64.5810901,37.6557621 64.6129965,37.7267424 64.6490199,37.7997951 C64.7581193,38.0562567 64.9083883,38.2992476 65.0993123,38.5277315 C65.2907509,38.7577698 65.5187275,38.977446 65.7822129,39.1883144 C66.0462129,39.3991828 66.3668211,39.5572046 66.7450667,39.6628979 C67.1227977,39.768073 67.5617684,39.8204015 68.0630082,39.8204015 L69.1416515,39.792942 L69.1416515,40.9887265 L67.4212772,40.9887265 C66.7198503,40.9799188 66.0966456,40.8545375 65.5501193,40.6110286 C65.0041076,40.3680377 64.5399205,40.0177992 64.1570433,39.559277 C63.7757099,39.1012729 63.4880374,38.5883497 63.2971135,38.0194713 C63.1056749,37.451111 63.0104702,36.8288678 63.0104702,36.1501513 L63.0104702,36.1226918 C63.0104702,35.5455237 63.1015579,35.0113583 63.2837333,34.5212317" id="Fill-21" fill="#464646" mask="url(#mask-4)"></path>
                <path d="M70.0014269,34.9265446 C70.0014269,34.3405687 70.0672982,33.819874 70.1995556,33.3665328 C70.3312982,32.9126735 70.5335439,32.5256497 70.806807,32.2044251 C71.070807,31.8842367 71.4058246,31.6365829 71.8108304,31.4624999 C72.2158363,31.2889349 72.6867135,31.1873865 73.2239766,31.159927 C73.6150877,31.159927 73.9814971,31.2241719 74.3221754,31.3531799 C74.6643977,31.4811516 74.9762573,31.6780312 75.258269,31.9438187 C75.5495439,32.2007984 75.7677427,32.4867919 75.9133801,32.8023173 C76.0590175,33.1193971 76.1315789,33.4561649 76.1315789,33.8136568 L76.1315789,33.8478516 L76.1315789,33.8960353 L76.1315789,33.9302302 L76.1315789,33.9784139 C76.1315789,34.1986082 76.1089357,34.411549 76.0631345,34.6172364 C76.0183626,34.82396 75.9545497,35.0234301 75.8727251,35.2156467 C75.7816374,35.4078634 75.6679064,35.5726205 75.5310175,35.7104363 C75.3941287,35.8477339 75.2356257,35.957572 75.0529357,36.0404686 C75.2356257,36.1228472 75.3992749,36.22595 75.5449123,36.3497769 C75.6905497,36.4730857 75.8181754,36.6264445 75.9272749,36.8103715 C76.0271111,36.9844545 76.1043041,37.1725263 76.159883,37.3735508 C76.2139181,37.5756114 76.241193,37.7812988 76.241193,37.9921672 L76.241193,40.988882 L74.9443509,40.988882 L74.9443509,38.1714313 C74.9443509,37.9419111 74.9011228,37.7408867 74.8146667,37.5662855 C74.7276959,37.3922025 74.6026433,37.2497239 74.4389942,37.1393677 C74.2660819,37.0300477 74.0700117,36.9455967 73.8518129,36.8854966 C73.6330994,36.8259146 73.3917427,36.7958646 73.1277427,36.7958646 L71.8314152,36.7689232 L71.8314152,35.5726205 L72.9095439,35.5726205 C72.9280702,35.5912723 72.9465965,35.6026706 72.9640936,35.6073335 C72.9826199,35.6119965 73.0006316,35.6140689 73.0191579,35.6140689 L73.0737076,35.6140689 L73.1277427,35.6140689 L73.1894971,35.6140689 L73.2512515,35.6140689 L73.2785263,35.6140689 C73.2872749,35.6140689 73.300655,35.6094059 73.3191813,35.6005982 L73.3536608,35.6005982 L73.3876257,35.6005982 C73.5698012,35.5726205 73.7442573,35.520292 73.9135673,35.4425764 C74.081848,35.3643427 74.2382924,35.2570951 74.3844444,35.1192794 C74.5383158,34.9913076 74.6556491,34.8301772 74.7323275,34.6379606 C74.8100351,34.4457439 74.848117,34.2255496 74.848117,33.9784139 C74.848117,33.740086 74.8146667,33.5318081 74.7462222,33.352544 C74.6777778,33.1737981 74.5753684,33.0297651 74.4389942,32.9194089 C74.3026199,32.8100889 74.161614,32.7204569 74.0159766,32.651549 C73.8698246,32.5831593 73.7154386,32.5349756 73.5512749,32.507516 C73.5152515,32.4981902 73.4787135,32.4919729 73.4421754,32.4867919 C73.4056374,32.4821289 73.3690994,32.4795384 73.333076,32.4795384 L73.2785263,32.4795384 C73.26,32.4795384 73.2466199,32.4759117 73.2373567,32.4665858 L73.1833216,32.4665858 L73.1277427,32.4665858 C72.8827836,32.4665858 72.6661287,32.4966359 72.4793216,32.5556997 C72.2925146,32.6152817 72.1360702,32.7049137 72.0084444,32.8230415 C71.8725848,32.9427236 71.7583392,33.0665505 71.6672515,33.1945222 C71.5761637,33.3230121 71.5030877,33.4561649 71.4490526,33.5939806 C71.4217778,33.6577074 71.3981053,33.7219523 71.3806082,33.7861972 C71.3620819,33.8499241 71.3435556,33.914169 71.3260585,33.9784139 C71.3167953,34.0426588 71.3101053,34.1022408 71.3054737,34.1571598 C71.3008421,34.2115608 71.2987836,34.262335 71.2987836,34.3084463 L71.2987836,40.988882 L70.0014269,40.988882 L70.0014269,34.9265446 Z" id="Fill-22" fill="#464646" mask="url(#mask-4)"></path>
                <path d="M77.9614643,32.4387118 C77.9799906,32.2553029 78.0185871,32.0879553 78.0777684,31.9366688 C78.1364351,31.7853824 78.2254643,31.6600012 78.3438269,31.5589709 C78.4534409,31.4584586 78.5718035,31.3802249 78.6989146,31.3253059 C78.827055,31.2703868 78.958283,31.2382644 79.0951719,31.2289385 L79.1224468,31.2289385 L79.1636164,31.2289385 C79.2814643,31.2382644 79.3977684,31.2683144 79.5114994,31.3185705 C79.6247158,31.3693447 79.7369029,31.4398069 79.8454877,31.5309932 C79.9551018,31.6232158 80.0487626,31.7371987 80.1259556,31.8750144 C80.2026339,32.0128301 80.2690199,32.1729243 80.3235696,32.3563332 L82.2626573,38.8310815 L84.0926456,32.4387118 C84.1379322,32.2553029 84.1965988,32.0879553 84.2696749,31.9366688 C84.3422363,31.7853824 84.4338386,31.664146 84.542938,31.5724416 C84.6520374,31.4719293 84.7616515,31.3916232 84.8712655,31.3320412 C84.9798503,31.2729773 85.0935813,31.2382644 85.2119439,31.2289385 L85.2325287,31.2289385 C85.2371602,31.2289385 85.2433357,31.2242755 85.2525988,31.2154678 L85.2803883,31.2154678 L85.3076632,31.2154678 L85.334938,31.2154678 C85.4718269,31.2154678 85.6009965,31.2382644 85.7239906,31.2838575 C85.8464702,31.3294507 85.9627743,31.4030215 86.0723883,31.5035337 C86.1820023,31.5957563 86.270517,31.7035219 86.3384468,31.8268307 C86.4068912,31.9506576 86.4454877,32.0905458 86.4547509,32.245977 L87.5333942,40.9889856 L86.1264234,40.9889856 L85.2664936,33.0847878 L83.1225871,40.3429096 C83.0958269,40.4708814 83.0541427,40.58331 83.0001076,40.6796774 C82.9460725,40.7760447 82.8776281,40.8511699 82.7952889,40.9060889 C82.7134643,40.9615261 82.6311251,41.0029744 82.5493006,41.0304339 C82.4679906,41.0578934 82.3810199,41.0760271 82.2899322,41.0848349 L82.2626573,41.0848349 L82.2358971,41.0848349 C82.1442947,41.0848349 82.0552655,41.0739547 81.969324,41.0511581 C81.8823532,41.0278434 81.7989848,40.9983115 81.7166456,40.9615261 C81.6343064,40.9060889 81.5689497,40.8402897 81.518517,40.7620559 C81.4685988,40.6848584 81.4300023,40.5905634 81.4027275,40.4802072 L79.1353123,33.0847878 L78.2758971,40.9889856 L76.8828211,40.9889856 L77.9614643,32.4387118 Z" id="Fill-23" fill="#464646" mask="url(#mask-4)"></path>
            </g>
        </g>
    </g>
</svg>