<svg width="14" height="14" viewBox="0 0 14 14" fill="none" xmlns="http://www.w3.org/2000/svg">
<path fill-rule="evenodd" clip-rule="evenodd" d="M13.4552 5.88404C13.4504 5.89463 13.4455 5.90522 13.441 5.916C13.4365 5.92717 13.4328 5.93882 13.4293 5.95044C13.4234 5.96934 13.4176 5.98815 13.4077 6.00467C13.388 6.03735 13.3622 6.06478 13.3363 6.09231C13.329 6.10016 13.3216 6.10801 13.3144 6.116C13.3063 6.12435 13.2991 6.1335 13.292 6.14265C13.2821 6.15542 13.2721 6.16818 13.2597 6.17867C13.2223 6.20916 13.1792 6.23036 13.1362 6.25148C13.1331 6.25299 13.1301 6.25449 13.127 6.256C13.1179 6.26041 13.1093 6.26595 13.1006 6.27151C13.0884 6.2794 13.076 6.28731 13.0624 6.292C12.9904 6.31867 12.9137 6.33333 12.8344 6.33333C12.7984 6.33333 12.761 6.33067 12.7244 6.324L9.89102 5.854C9.52769 5.794 9.28235 5.45067 9.34235 5.08733C9.40235 4.72467 9.74502 4.476 10.109 4.53933L11.205 4.72067C10.375 3.26333 8.79035 2.33333 7.04635 2.33333C5.07369 2.33333 3.33569 3.47867 2.61769 5.25C2.51302 5.51 2.26302 5.66667 1.99969 5.66667C1.91635 5.66667 1.83169 5.65133 1.74969 5.618C1.40835 5.48 1.24369 5.09133 1.38235 4.75C2.30502 2.472 4.52835 1 7.04635 1C9.32102 1 11.3884 2.24667 12.4317 4.192L12.6777 2.87667C12.7457 2.51533 13.095 2.276 13.4557 2.34533C13.8177 2.41267 14.0564 2.76133 13.9884 3.12333L13.489 5.79C13.4826 5.82401 13.4689 5.854 13.4552 5.88404ZM11.3823 8.75014C11.5203 8.40814 11.9096 8.24414 12.2503 8.38214C12.5916 8.52014 12.7563 8.90881 12.6176 9.25014C11.6949 11.5281 9.4716 13.0001 6.9536 13.0001C4.67893 13.0001 2.6116 11.7535 1.56826 9.80814L1.3216 11.1228C1.26226 11.4435 0.982263 11.6668 0.66693 11.6668C0.626263 11.6668 0.58493 11.6628 0.543596 11.6548C0.181596 11.5875 -0.0564039 11.2388 0.0115961 10.8768L0.51093 8.21014C0.515997 8.18396 0.527219 8.16072 0.538492 8.13737C0.545014 8.12386 0.551554 8.11031 0.55693 8.09614C0.5622 8.08286 0.566805 8.06911 0.571417 8.05534C0.581388 8.02556 0.591397 7.99567 0.608263 7.97014C0.618102 7.95497 0.630965 7.94283 0.643909 7.93061C0.652015 7.92296 0.660151 7.91528 0.667596 7.90681C0.673468 7.90001 0.679276 7.89316 0.685075 7.88633C0.716803 7.84893 0.748244 7.81186 0.788263 7.78481C0.792193 7.78195 0.796889 7.78024 0.80153 7.77855C0.805549 7.77709 0.809526 7.77564 0.81293 7.77347C0.877596 7.73147 0.94693 7.69881 1.0236 7.68214C1.02827 7.68106 1.03313 7.68134 1.03798 7.68162C1.04213 7.68185 1.04627 7.68209 1.05026 7.68147C1.1236 7.66947 1.1976 7.66214 1.2756 7.67547L4.10893 8.14614C4.47226 8.20547 4.7176 8.54947 4.6576 8.91281C4.6036 9.23881 4.32093 9.47014 4.00026 9.47014C3.96426 9.47014 3.9276 9.46747 3.89093 9.46081L2.79493 9.27947C3.62493 10.7368 5.2096 11.6668 6.9536 11.6668C8.92626 11.6668 10.6643 10.5215 11.3823 8.75014Z" fill="#677F99"/>
</svg>
