<?xml version="1.0" standalone="no"?><!DOCTYPE svg PUBLIC "-//W3C//DTD SVG 1.1//EN" "http://www.w3.org/Graphics/SVG/1.1/DTD/svg11.dtd"><svg t="1671682221030" class="icon" viewBox="0 0 1024 1024" version="1.1" xmlns="http://www.w3.org/2000/svg" p-id="23661" xmlns:xlink="http://www.w3.org/1999/xlink" width="200" height="200"><path d="M551.384615 109.725538a36.548923 36.548923 0 0 1-36.548923 36.548924H185.659077a73.176615 73.176615 0 0 0-73.097846 73.176615v585.097846c0 40.408615 32.689231 73.176615 73.097846 73.176615h585.176615a73.176615 73.176615 0 0 0 73.097846-73.176615V475.451077a36.548923 36.548923 0 1 1 73.176616 0v329.097846a146.274462 146.274462 0 0 1-146.274462 146.274462H185.659077A146.274462 146.274462 0 0 1 39.384615 804.548923V219.451077C39.384615 138.633846 104.841846 73.176615 185.659077 73.176615h329.176615c20.164923 0 36.548923 16.305231 36.548923 36.548923z m413.538462-78.532923a36.548923 36.548923 0 0 1 0 51.672616L396.051692 651.815385a36.548923 36.548923 0 0 1-51.751384-51.751385L913.250462 31.192615a36.548923 36.548923 0 0 1 51.672615 0z" fill="#797F8C" p-id="23662"></path></svg>