<?xml version="1.0" standalone="no"?><!DOCTYPE svg PUBLIC "-//W3C//DTD SVG 1.1//EN" "http://www.w3.org/Graphics/SVG/1.1/DTD/svg11.dtd"><svg t="1668406553250" class="icon" viewBox="0 0 1033 1024" version="1.1" xmlns="http://www.w3.org/2000/svg" p-id="22933" xmlns:xlink="http://www.w3.org/1999/xlink" width="201.7578125" height="200"><path d="M289.498671 768.671916l141.379661 109.895596a85.0667 85.0667 0 0 1 0 120.475608c-33.275841 33.275841-87.285089 33.275841-120.646253 0L33.61599 754.252385a84.810732 84.810732 0 0 1-21.074699-34.55568A85.322668 85.322668 0 0 1 89.843628 598.282548h853.22668a85.322668 85.322668 0 1 1 0 170.389368H289.498671z m453.916594-513.301171L602.035604 145.389826a85.0667 85.0667 0 0 1 0-120.475607c33.275841-33.275841 87.285089-33.275841 120.646253 0l276.616089 245.046703c10.068075 9.982752 17.064534 21.842603 21.074699 34.470357A85.322668 85.322668 0 0 1 943.070308 425.760113H89.843628a85.322668 85.322668 0 1 1 0-170.389368h653.571637z" fill="#3B78DE" p-id="22934"></path></svg>