<?xml version="1.0" encoding="UTF-8"?>
<svg width="14px" height="14px" viewBox="0 0 14 14" version="1.1" xmlns="http://www.w3.org/2000/svg" xmlns:xlink="http://www.w3.org/1999/xlink">
    <title>警告</title>
    <g id="警告" stroke="none" stroke-width="1" fill="none" fill-rule="evenodd">
        <path d="M6.85714286,1.687539e-14 C10.6442383,1.687539e-14 13.7142857,3.07004743 13.7142857,6.85714286 C13.7142857,10.6442383 10.6442383,13.7142857 6.85714286,13.7142857 C3.07004743,13.7142857 1.59872116e-14,10.6442383 1.59872116e-14,6.85714286 C1.59872116e-14,3.07004743 3.07004743,1.687539e-14 6.85714286,1.687539e-14 Z M6.85714286,8.75428572 C6.28571428,8.75428572 5.824,9.2297143 5.824,9.816 C5.824,10.4022857 6.28571428,10.8765714 6.85714286,10.8765714 C7.42857144,10.8765714 7.89028572,10.4022857 7.89028572,9.816 C7.89425413,9.53804495 7.78762833,9.26990065 7.59387049,9.07057013 C7.40011265,8.87123961 7.1350987,8.75705541 6.85714286,8.75314286 L6.85714286,8.75428572 Z M6.85714286,2.79428572 C6.56423421,2.78513296 6.28042058,2.89667697 6.07212423,3.10281257 C5.86382789,3.30894817 5.74933055,3.59158327 5.75542858,3.88457144 L6.19542858,7.82057144 C6.30628572,8.1177143 6.52685716,8.31542858 6.85714286,8.31542858 C7.18857144,8.31542858 7.408,8.11657144 7.51885714,7.82057144 L7.95885714,3.78628572 C7.95885714,3.192 7.408,2.79428572 6.85714286,2.79428572 L6.85714286,2.79428572 Z" id="形状" fill="#FBBC04"></path>
    </g>
</svg>